<?xml version="1.0" standalone="no"?>
<!DOCTYPE svg PUBLIC "-//W3C//DTD SVG 20010904//EN"
 "http://www.w3.org/TR/2001/REC-SVG-20010904/DTD/svg10.dtd">
<svg version="1.0" xmlns="http://www.w3.org/2000/svg"
 width="512.000000pt" height="512.000000pt" viewBox="0 0 512.000000 512.000000"
 preserveAspectRatio="xMidYMid meet">
<metadata>
Created by potrace 1.14, written by Peter Selinger 2001-2017
</metadata>
<g transform="translate(0.000000,512.000000) scale(0.100000,-0.100000)"
fill="#000000" stroke="none">
<path d="M1564 4785 c-69 -19 -154 -57 -210 -95 -132 -91 -456 -424 -652 -669
-152 -189 -205 -278 -225 -380 -11 -51 -14 -57 -29 -47 -25 15 -80 -16 -127
-73 -88 -106 -242 -326 -252 -360 -9 -31 -8 -49 5 -92 27 -94 84 -177 206
-299 125 -126 208 -194 635 -520 154 -117 467 -360 695 -540 1380 -1085 1481
-1162 1664 -1269 273 -160 667 -316 938 -371 196 -40 415 -25 565 40 235 101
361 316 312 530 -19 83 -69 169 -337 572 -331 497 -347 524 -382 642 -16 52
-42 126 -58 165 -24 58 -29 78 -22 102 5 17 7 44 3 60 -7 35 -65 89 -96 89
-30 0 -150 205 -136 232 31 58 -24 158 -87 158 -17 0 -34 21 -78 95 -52 88
-55 98 -49 143 9 78 -22 120 -107 145 -8 2 -36 46 -63 96 -44 86 -46 94 -32
114 8 12 15 41 15 65 0 44 -16 67 -82 118 -8 7 -23 52 -32 100 -10 48 -27 107
-38 131 -19 40 -69 93 -88 93 -5 0 -25 50 -45 110 -38 115 -57 140 -105 140
-13 0 -83 -27 -155 -59 -225 -103 -354 -151 -400 -151 -73 0 -285 31 -381 55
-169 43 -252 102 -313 222 -40 81 -64 162 -111 385 -48 223 -76 294 -130 320
-42 22 -142 23 -216 3z"/>
</g>
</svg>
