<svg width="20" height="20" viewBox="0 0 20 20" fill="none" xmlns="http://www.w3.org/2000/svg">
<path d="M1 1H4.27273L6.46545 11.9555C6.54027 12.3321 6.7452 12.6705 7.04436 12.9113C7.34351 13.1522 7.71784 13.2801 8.10182 13.2727H16.0545C16.4385 13.2801 16.8129 13.1522 17.112 12.9113C17.4112 12.6705 17.6161 12.3321 17.6909 11.9555L19 5.09091H5.09091M8.36364 17.3636C8.36364 17.8155 7.99732 18.1818 7.54545 18.1818C7.09359 18.1818 6.72727 17.8155 6.72727 17.3636C6.72727 16.9118 7.09359 16.5455 7.54545 16.5455C7.99732 16.5455 8.36364 16.9118 8.36364 17.3636ZM17.3636 17.3636C17.3636 17.8155 16.9973 18.1818 16.5455 18.1818C16.0936 18.1818 15.7273 17.8155 15.7273 17.3636C15.7273 16.9118 16.0936 16.5455 16.5455 16.5455C16.9973 16.5455 17.3636 16.9118 17.3636 17.3636Z" stroke="white" stroke-width="2" stroke-linecap="round" stroke-linejoin="round"/>
</svg>
